<svg xmlns="http://www.w3.org/2000/svg" width="1000" height="1000"><path fill="#0c9d58" d="M795.441 641.804c0 13.922-11.48 25.325-25.508 25.325H230.045c-14.029 0-25.508-11.403-25.508-25.325V112.129c0-13.922 11.48-25.325 25.508-25.325h539.903c14.03 0 25.509 11.403 25.509 25.325v529.675z" style="stroke-width:.999998"/><path fill="#004d40" d="M5210.8 892 3885.3 721.4 5210.8 1077z" opacity=".2" style="stroke-width:6.5508" transform="matrix(.15265 0 0 .15265 -.003 86.804)"/><path fill="#004d40" d="M509.751 114.419 203.331 251.24l338.66-123.267v-.336c-5.953-12.761-20.455-18.715-32.24-13.22z" opacity=".2" style="stroke-width:.999998"/><path fill="#fff" d="M769.948 86.804H230.045c-14.029 0-25.508 11.403-25.508 25.325v5.678c0-13.921 11.48-25.325 25.508-25.325h539.903c14.03 0 25.509 11.404 25.509 25.325v-5.678c-.016-13.922-11.48-25.325-25.509-25.325z" opacity=".2" style="stroke-width:.999998"/><path fill="#ea4335" d="M335.559 625.531c-3.648 13.602 3.633 27.478 16.181 30.836L851.8 790.854c12.549 3.359 25.8-5.022 29.432-18.623l117.803-439.64c3.648-13.602-3.634-27.478-16.182-30.837l-500.06-134.487c-12.548-3.358-25.799 5.022-29.432 18.624z" style="stroke-width:.999998"/><path fill="#3e2723" d="m5806.4 2638.1 172.3 1046.7-172.3 643.3zM3900.8 764.1l154.4 41.5 95.8 646z" opacity=".2" style="stroke-width:6.5508" transform="matrix(.15265 0 0 .15265 -.003 86.804)"/><path fill="#fff" d="M982.869 301.754 482.808 167.267c-12.548-3.358-25.798 5.022-29.431 18.624L335.574 625.53c-.198.733-.244 1.48-.381 2.214L452.11 191.432c3.648-13.601 16.898-21.982 29.431-18.624l500.06 134.488c11.862 3.175 18.899 15.769 16.563 28.637l.901-3.343c3.633-13.601-3.648-27.477-16.196-30.836z" opacity=".2" style="stroke-width:.999998"/><path fill="#ffc107" d="M729.388 571.385c4.809 13.235-1.236 27.691-13.433 32.134L188.279 795.57c-12.212 4.443-26.134-2.747-30.942-15.982L1.66 351.886c-4.808-13.236 1.237-27.692 13.434-32.134L542.77 127.7c12.212-4.442 26.134 2.748 30.943 15.983z" style="stroke-width:.999998"/><path fill="#fff" d="M3.66 357.274c-4.808-13.235 1.237-27.691 13.434-32.133L544.77 133.073c12.075-4.397 25.798 2.61 30.76 15.57l-1.817-4.976c-4.824-13.235-18.746-20.425-30.943-15.983L15.095 319.752C2.882 324.194-3.163 338.65 1.66 351.886l155.676 427.703c.045.137.137.26.198.412z" opacity=".2" style="stroke-width:.999998"/><path fill="#4285f4" d="M886.361 879.408c0 14.06-11.51 25.57-25.569 25.57h-721.59c-14.06 0-25.57-11.51-25.57-25.57V333.964c0-14.06 11.51-25.57 25.57-25.57h721.59c14.06 0 25.57 11.51 25.57 25.57z" style="stroke-width:.999998"/><path fill="#fff" d="M748.577 524.307H532.665V467.49h215.912c6.274 0 11.357 5.083 11.357 11.357v34.087c0 6.274-5.083 11.373-11.357 11.373zm0 215.897H532.665v-56.817h215.912c6.274 0 11.357 5.083 11.357 11.357v34.087c0 6.29-5.083 11.373-11.357 11.373zm34.087-107.956h-250V575.43h250c6.274 0 11.358 5.083 11.358 11.357v34.087c0 6.29-5.084 11.373-11.358 11.373z" style="stroke-width:.999998"/><path fill="#1a237e" d="M860.792 899.299h-721.59c-14.06 0-25.57-11.51-25.57-25.57v5.68c0 14.059 11.51 25.569 25.57 25.569h721.59c14.06 0 25.57-11.51 25.57-25.57v-5.678c0 14.059-11.51 25.569-25.57 25.569z" opacity=".2" style="stroke-width:.999998"/><path fill="#fff" d="M139.201 314.073h721.591c14.06 0 25.57 11.51 25.57 25.57v-5.679c0-14.06-11.51-25.57-25.57-25.57h-721.59c-14.06 0-25.57 11.51-25.57 25.57v5.679c0-14.06 11.51-25.57 25.57-25.57z" opacity=".2" style="stroke-width:.999998"/><path fill="#fff" d="M339.482 581.124v51.246h73.533c-6.075 31.218-33.522 53.856-73.533 53.856-44.636 0-80.83-37.751-80.83-82.387s36.194-82.387 80.83-82.387c20.105 0 38.102 6.916 52.314 20.456v.03l38.912-38.91c-23.631-22.029-54.452-35.538-91.241-35.538-75.304 0-136.365 61.045-136.365 136.364 0 75.32 61.046 136.365 136.365 136.365 78.754 0 130.564-55.367 130.564-133.266 0-8.93-.824-17.54-2.152-25.829z" style="stroke-width:.999998"/><g fill="#1a237e" opacity=".2" style="stroke-width:6.5508"><path d="M2233.2 3573.9v37.2h472.7c3.5-12.2 6.5-24.6 9-37.2z" style="stroke-width:6.5508" transform="matrix(.15265 0 0 .15265 -.003 86.804)"/><path d="M2233.2 4280.3c-487.1 0-882.9-389.9-892.8-874.7-.1 6.2-.5 12.4-.5 18.6 0 493.4 399.9 893.3 893.3 893.3 515.9 0 855.3-362.7 855.3-873 0-4.1-.5-7.9-.5-12-11.1 497-347.4 847.8-854.8 847.8zm342.7-1299c-93.1-88.6-211.1-134-342.7-134-292.4 0-529.5 247.3-529.5 539.7 0 6.3.7 12.4.9 18.6 9.9-284.2 242.4-521.1 528.6-521.1 131.7 0 249.6 45.3 342.7 134v.2l273.5-273.5c-6.4-6-13.5-11.3-20.1-17.1L2576 2981.5Z" style="stroke-width:6.5508" transform="matrix(.15265 0 0 .15265 -.003 86.804)"/></g><path fill="#1a237e" d="M759.934 518.613v-5.679c0 6.274-5.083 11.358-11.357 11.358H532.665v5.678h215.912c6.274.016 11.357-5.068 11.357-11.357zm-11.357 221.591H532.665v5.679h215.912c6.274 0 11.357-5.084 11.357-11.358v-5.678c0 6.274-5.083 11.357-11.357 11.357zm34.087-107.956h-250v5.679h250c6.274 0 11.358-5.084 11.358-11.358v-5.678c0 6.274-5.084 11.357-11.358 11.357z" opacity=".2" style="stroke-width:.999998"/><radialGradient id="a" cx="1476.404" cy="434.236" r="6370.563" gradientTransform="matrix(.15265 0 0 .15265 -.003 86.804)" gradientUnits="userSpaceOnUse"><stop offset="0" stop-color="#fff" stop-opacity=".1"/><stop offset="1" stop-color="#fff" stop-opacity="0"/></radialGradient><path fill="url(#a)" d="m982.869 301.754-187.412-50.406v-139.22c0-13.921-11.48-25.324-25.509-25.324H230.045c-14.029 0-25.508 11.403-25.508 25.325v138.67L15.095 319.752C2.882 324.194-3.163 338.65 1.66 351.886l111.971 307.656v219.866c0 14.06 11.51 25.57 25.57 25.57h721.59c14.06 0 25.57-11.51 25.57-25.57V753.18l112.703-420.59c3.633-13.601-3.648-27.477-16.196-30.836z" style="fill:url(#a);stroke-width:.999998"/></svg>